<svg width="586" height="425" xmlns="http://www.w3.org/2000/svg" xmlns:xlink="http://www.w3.org/1999/xlink" overflow="hidden"><defs><clipPath id="clip0"><rect x="0" y="0" width="586" height="425"/></clipPath></defs><g clip-path="url(#clip0)"><rect x="0" y="0" width="586" height="424.713" fill="#FFFFFF"/><path d="M65.3334 150.898C62.3878 150.898 60 148.512 60 145.568L60 39.3069C60 36.3633 62.3878 33.977 65.3334 33.977L86.6665 33.977C89.6121 33.977 92 36.3633 92 39.3069L92 145.568C92 148.512 89.6121 150.898 86.6665 150.898Z" stroke="#172C51" stroke-width="1.99922" stroke-miterlimit="8" fill="none" fill-rule="evenodd"/><text font-family="Cambria Math,Cambria Math_MSFontService,sans-serif" font-weight="400" font-size="14.6609" transform="matrix(-1.83697e-16 -0.998648 1.00068 -1.83573e-16 81.1231 109)">𝒚</text><path d="M56.4049 3.0131C57.7965 3.38008 58.8653 4.17242 59.6112 5.39013 60.3571 6.60784 60.73 8.07695 60.73 9.79747 60.73 11.5228 60.3583 12.9919 59.6148 14.2048 58.8713 15.4178 57.8013 16.2077 56.4049 16.5747L56.2333 16.0242C57.3342 15.6572 58.1528 14.9328 58.689 13.8509 59.2251 12.7691 59.4932 11.3941 59.4932 9.72598 59.4932 8.11508 59.2263 6.77703 58.6925 5.71183 58.1588 4.64664 57.3319 3.93055 56.2118 3.56357ZM46.4816 3.0131 46.6746 3.56357C45.5594 3.93055 44.7337 4.64664 44.1975 5.71183 43.6613 6.77703 43.3932 8.11508 43.3932 9.72598 43.3932 11.3941 43.6613 12.7691 44.1975 13.8509 44.7337 14.9328 45.5522 15.6572 46.6532 16.0242L46.4816 16.5747C45.0851 16.2077 44.0152 15.4178 43.2717 14.2048 42.5282 12.9919 42.1565 11.5228 42.1565 9.79747 42.1565 8.07695 42.5294 6.60784 43.2753 5.39013 44.0211 4.17242 45.0899 3.38008 46.4816 3.0131Z" fill-rule="evenodd" transform="matrix(-1.83946e-16 -1 1.00203 -1.83821e-16 67.1191 140.98)"/><text font-family="Cambria Math,Cambria Math_MSFontService,sans-serif" font-weight="400" font-size="14.6609" transform="matrix(-1.83697e-16 -0.998648 1.00068 -1.83573e-16 81.1231 94)">𝒌</text><path d="M126 87.8877C126 82.9496 130.006 78.9466 134.947 78.9466L148.053 78.9466C152.994 78.9466 157 82.9496 157 87.8877L157 141.957C157 146.895 152.994 150.898 148.053 150.898L134.947 150.898C130.006 150.898 126 146.895 126 141.957Z" stroke="#172C51" stroke-width="2.00057" stroke-miterlimit="8" fill="none" fill-rule="evenodd"/><text font-family="Cambria Math,Cambria Math_MSFontService,sans-serif" font-weight="400" font-size="14.6609" transform="matrix(1 0 0 0.999324 135.544 120)">𝒇</text><path d="M255.167 150.898C252.313 150.898 250 148.586 250 145.735L250 39.1402C250 36.2886 252.313 33.977 255.167 33.977L275.833 33.977C278.687 33.977 281 36.2886 281 39.1402L281 145.735C281 148.586 278.687 150.898 275.833 150.898Z" stroke="#172C51" stroke-width="1.99922" stroke-miterlimit="8" fill="none" fill-rule="evenodd"/><text font-family="Cambria Math,Cambria Math_MSFontService,sans-serif" font-weight="400" font-size="14.6609" transform="matrix(-1.83697e-16 -0.998648 1.00068 -1.83573e-16 270.84 122)">𝒚</text><path d="M69.5641 3.0131C70.9558 3.38008 72.0246 4.17242 72.7704 5.39013 73.5163 6.60784 73.8893 8.07695 73.8893 9.79747 73.8893 11.5228 73.5175 12.9919 72.774 14.2048 72.0305 15.4178 70.9606 16.2077 69.5641 16.5747L69.3926 16.0242C70.4935 15.6572 71.3121 14.9328 71.8482 13.8509 72.3844 12.7691 72.6525 11.3941 72.6525 9.72598 72.6525 8.11508 72.3856 6.77703 71.8518 5.71183 71.318 4.64664 70.4911 3.93055 69.3711 3.56357ZM33.3157 3.0131 33.5087 3.56357C32.3934 3.93055 31.5677 4.64664 31.0316 5.71183 30.4954 6.77703 30.2273 8.11508 30.2273 9.72598 30.2273 11.3941 30.4954 12.7691 31.0316 13.8509 31.5677 14.9328 32.3863 15.6572 33.4872 16.0242L33.3157 16.5747C31.9192 16.2077 30.8493 15.4178 30.1058 14.2048 29.3623 12.9919 28.9905 11.5228 28.9905 9.79747 28.9905 8.07695 29.3635 6.60784 30.1093 5.39013 30.8552 4.17242 31.924 3.38008 33.3157 3.0131Z" fill-rule="evenodd" transform="matrix(-1.83946e-16 -1 1.00203 -1.83821e-16 256.836 140.976)"/><text font-family="Cambria Math,Cambria Math_MSFontService,sans-serif" font-weight="400" font-size="14.6609" transform="matrix(-1.83697e-16 -0.998648 1.00068 -1.83573e-16 270.84 107)">𝒌</text><text font-family="Cambria Math,Cambria Math_MSFontService,sans-serif" font-weight="400" font-size="14.6609" transform="matrix(-1.83697e-16 -0.998648 1.00068 -1.83573e-16 270.84 95)">+</text><text font-family="Cambria Math,Cambria Math_MSFontService,sans-serif" font-weight="400" font-size="14.6609" transform="matrix(-1.83697e-16 -0.998648 1.00068 -1.83573e-16 270.84 81)">𝟏</text><path d="M65.3334 299.797C62.3879 299.797 60 297.411 60 294.467L60 189.205C60 186.262 62.3879 183.876 65.3334 183.876L86.6667 183.876C89.6122 183.876 92.0001 186.262 92.0001 189.205L92.0001 294.467C92.0001 297.411 89.6122 299.797 86.6667 299.797Z" stroke="#172C51" stroke-width="1.99922" stroke-miterlimit="8" fill="none" fill-rule="evenodd"/><text font-family="Cambria Math,Cambria Math_MSFontService,sans-serif" font-weight="400" font-size="14.6609" transform="matrix(-1.83697e-16 -0.998648 1.00068 -1.83573e-16 81.1232 257)">𝒚</text><path d="M54.9864 3.0131C56.3781 3.38008 57.4468 4.17242 58.1927 5.39013 58.9386 6.60784 59.3115 8.07695 59.3115 9.79747 59.3115 11.5228 58.9398 12.9919 58.1963 14.2048 57.4528 15.4178 56.3828 16.2077 54.9864 16.5747L54.8148 16.0242C55.9158 15.6572 56.7343 14.9328 57.2705 13.8509 57.8067 12.7691 58.0747 11.3941 58.0747 9.72598 58.0747 8.11508 57.8078 6.77703 57.2741 5.71183 56.7403 4.64664 55.9134 3.93055 54.7934 3.56357ZM47.8934 3.0131 48.0864 3.56357C46.9712 3.93055 46.1455 4.64664 45.6093 5.71183 45.0731 6.77703 44.805 8.11508 44.805 9.72598 44.805 11.3941 45.0731 12.7691 45.6093 13.8509 46.1455 14.9328 46.964 15.6572 48.065 16.0242L47.8934 16.5747C46.497 16.2077 45.427 15.4178 44.6835 14.2048 43.94 12.9919 43.5683 11.5228 43.5683 9.79747 43.5683 8.07695 43.9412 6.60784 44.6871 5.39013 45.433 4.17242 46.5017 3.38008 47.8934 3.0131Z" fill-rule="evenodd" transform="matrix(-1.83946e-16 -1 1.00203 -1.83821e-16 67.1192 290.509)"/><text font-family="Cambria Math,Cambria Math_MSFontService,sans-serif" font-weight="400" font-size="14.6609" transform="matrix(-1.83697e-16 -0.998648 1.00068 -1.83573e-16 81.1232 242)">𝒕</text><path d="M126 233.789C126 228.851 130.006 224.848 134.947 224.848L148.053 224.848C152.994 224.848 157 228.851 157 233.789L157 287.858C157 292.796 152.994 296.799 148.053 296.799L134.947 296.799C130.006 296.799 126 292.796 126 287.858Z" stroke="#172C51" stroke-width="2.00057" stroke-miterlimit="8" fill="none" fill-rule="evenodd"/><text font-family="Cambria Math,Cambria Math_MSFontService,sans-serif" font-weight="400" font-size="14.6609" transform="matrix(1 0 0 0.999324 134.958 257)">𝒅</text><text font-family="Cambria Math,Cambria Math_MSFontService,sans-serif" font-weight="400" font-size="14.6609" transform="matrix(1 0 0 0.999324 131.877 278)">𝒅𝒕</text><path d="M0 18.9872 15.9892 18.9872 15.9892 19.9865 0 19.9865Z" fill-rule="evenodd" transform="matrix(1.00068 0 0 1 131.877 243.923)"/><path d="M255.167 299.797C252.313 299.797 250 297.485 250 294.634L250 189.039C250 186.187 252.313 183.876 255.167 183.876L275.833 183.876C278.687 183.876 281 186.187 281 189.039L281 294.634C281 297.485 278.687 299.797 275.833 299.797Z" stroke="#172C51" stroke-width="1.99922" stroke-miterlimit="8" fill="none" fill-rule="evenodd"/><text font-family="Cambria Math,Cambria Math_MSFontService,sans-serif" font-weight="400" font-size="14.6609" transform="matrix(-1.83697e-16 -0.998648 1.00068 -1.83573e-16 270.84 274)">𝒚</text><path d="M71.562 3.0131C72.9537 3.38008 74.0224 4.17242 74.7683 5.39013 75.5142 6.60784 75.8871 8.07695 75.8871 9.79747 75.8871 11.5228 75.5154 12.9919 74.7719 14.2048 74.0284 15.4178 72.9584 16.2077 71.562 16.5747L71.3904 16.0242C72.4914 15.6572 73.3099 14.9328 73.8461 13.8509 74.3823 12.7691 74.6504 11.3941 74.6504 9.72598 74.6504 8.11508 74.3835 6.77703 73.8497 5.71183 73.3159 4.64664 72.489 3.93055 71.369 3.56357ZM31.3178 3.0131 31.5108 3.56357C30.3956 3.93055 29.5699 4.64664 29.0337 5.71183 28.4975 6.77703 28.2294 8.11508 28.2294 9.72598 28.2294 11.3941 28.4975 12.7691 29.0337 13.8509 29.5699 14.9328 30.3884 15.6572 31.4894 16.0242L31.3178 16.5747C29.9214 16.2077 28.8514 15.4178 28.1079 14.2048 27.3644 12.9919 26.9927 11.5228 26.9927 9.79747 26.9927 8.07695 27.3656 6.60784 28.1115 5.39013 28.8574 4.17242 29.9261 3.38008 31.3178 3.0131Z" fill-rule="evenodd" transform="matrix(-1.83946e-16 -1 1.00203 -1.83821e-16 256.836 290.509)"/><text font-family="Cambria Math,Cambria Math_MSFontService,sans-serif" font-weight="400" font-size="14.6609" transform="matrix(-1.83697e-16 -0.998648 1.00068 -1.83573e-16 270.84 259)">𝒕</text><text font-family="Cambria Math,Cambria Math_MSFontService,sans-serif" font-weight="400" font-size="14.6609" transform="matrix(-1.83697e-16 -0.998648 1.00068 -1.83573e-16 270.84 249)">+</text><text font-family="Cambria Math,Cambria Math_MSFontService,sans-serif" font-weight="400" font-size="14.6609" transform="matrix(-1.83697e-16 -0.998648 1.00068 -1.83573e-16 270.84 235)">𝚫</text><text font-family="Cambria Math,Cambria Math_MSFontService,sans-serif" font-weight="400" font-size="14.6609" transform="matrix(-1.83697e-16 -0.998648 1.00068 -1.83573e-16 270.84 226)">𝒕</text><path d="M191 66.9546 215 66.9546" stroke="#172C51" stroke-width="2.00057" stroke-miterlimit="8" fill="none" fill-rule="evenodd"/><path d="M203 78.9465 203 55.962" stroke="#172C51" stroke-width="1.99922" stroke-miterlimit="8" fill="none" fill-rule="evenodd"/><path d="M191 67.4543C191 61.1073 196.373 55.9621 203 55.9621 209.627 55.9621 215 61.1073 215 67.4543 215 73.8013 209.627 78.9466 203 78.9466 196.373 78.9466 191 73.8013 191 67.4543Z" stroke="#000000" stroke-width="2.00057" stroke-miterlimit="8" fill="none" fill-rule="evenodd"/><path d="M191 212.856 215 212.856" stroke="#172C51" stroke-width="2.00057" stroke-miterlimit="8" fill="none" fill-rule="evenodd"/><path d="M203 224.848 203 201.863" stroke="#172C51" stroke-width="1.99922" stroke-miterlimit="8" fill="none" fill-rule="evenodd"/><path d="M191 213.356C191 207.009 196.373 201.863 203 201.863 209.627 201.863 215 207.009 215 213.356 215 219.703 209.627 224.848 203 224.848 196.373 224.848 191 219.703 191 213.356Z" stroke="#000000" stroke-width="2.00057" stroke-miterlimit="8" fill="none" fill-rule="evenodd"/><path d="M195.322 251.638 211.747 268.052" stroke="#172C51" stroke-width="1.99989" stroke-miterlimit="8" fill="none" fill-rule="evenodd"/><path d="M195.322 268.052 211.747 251.638" stroke="#172C51" stroke-width="1.99989" stroke-miterlimit="8" fill="none" fill-rule="evenodd"/><path d="M195.04 251.544C199.627 246.96 207.065 246.96 211.653 251.544 216.241 256.129 216.241 263.562 211.653 268.146 207.065 272.731 199.627 272.731 195.04 268.146 190.452 263.562 190.452 256.129 195.04 251.544Z" stroke="#000000" stroke-width="1.99989" stroke-miterlimit="8" fill="none" fill-rule="evenodd"/><text font-family="Cambria Math,Cambria Math_MSFontService,sans-serif" font-weight="400" font-size="14.6609" transform="matrix(1 0 0 0.999324 196.835 312)">∆</text><text font-family="Cambria Math,Cambria Math_MSFontService,sans-serif" font-weight="400" font-size="14.6609" transform="matrix(1 0 0 0.999324 205.504 312)">𝒕</text><path d="M90.9999 66.9544 189.02 66.9544 189.02 68.9536 90.9999 68.9536ZM181.521 62.4258 191.005 67.954 181.521 73.4823C181.044 73.7605 180.432 73.5994 180.153 73.1225 179.875 72.6457 180.036 72.0336 180.513 71.7554L188.515 67.0906 188.515 68.8175 180.513 64.1526C180.036 63.8745 179.875 63.2624 180.153 62.7855 180.432 62.3087 181.044 62.1476 181.521 62.4258Z"/><path d="M216 66.9544 248.019 66.9544 248.019 68.9536 216 68.9536ZM240.521 62.4258 250.005 67.954 240.521 73.4823C240.044 73.7605 239.432 73.5994 239.153 73.1225 238.875 72.6457 239.036 72.0336 239.513 71.7554L247.515 67.0906 247.515 68.8175 239.513 64.1526C239.036 63.8745 238.875 63.2624 239.153 62.7855 239.432 62.3087 240.044 62.1476 240.521 62.4258Z"/><path d="M90.9999 115.921 125.019 115.921 125.019 117.92 90.9999 117.92ZM117.521 111.393 127.005 116.921 117.521 122.449C117.044 122.727 116.431 122.566 116.153 122.089 115.875 121.613 116.036 121 116.513 120.722L124.515 116.057 124.515 117.784 116.513 113.119C116.036 112.841 115.875 112.229 116.153 111.752 116.431 111.275 117.044 111.114 117.521 111.393Z"/><path d="M92 210.857 190.02 210.857 190.02 212.856 92 212.856ZM182.521 206.328 192.005 211.857 182.521 217.385C182.044 217.663 181.432 217.502 181.153 217.025 180.875 216.548 181.036 215.936 181.513 215.658L189.515 210.993 189.515 212.72 181.513 208.055C181.036 207.777 180.875 207.165 181.153 206.688 181.432 206.211 182.044 206.05 182.521 206.328Z"/><path d="M217 211.856 249.019 211.856 249.019 213.856 217 213.856ZM241.521 207.328 251.005 212.856 241.521 218.384C241.044 218.662 240.431 218.501 240.153 218.024 239.875 217.548 240.036 216.936 240.513 216.657L248.515 211.993 248.515 213.719 240.513 209.055C240.036 208.776 239.875 208.164 240.153 207.687 240.431 207.211 241.044 207.05 241.521 207.328Z"/><path d="M92 259.824 126.019 259.824 126.019 261.823 92 261.823ZM118.521 255.295 128.005 260.823 118.521 266.352C118.044 266.63 117.431 266.469 117.153 265.992 116.875 265.515 117.036 264.903 117.513 264.625L125.515 259.96 125.515 261.687 117.513 257.022C117.036 256.744 116.875 256.132 117.153 255.655 117.431 255.178 118.044 255.017 118.521 255.295Z"/><path d="M158 114.922 202 114.922 201 115.922 201 78.9271 203 78.9271 203 116.921 158 116.921ZM196.468 86.4203 202 76.9433 207.532 86.4203C207.81 86.8972 207.649 87.5092 207.172 87.7874 206.695 88.0656 206.082 87.9045 205.804 87.4276L201.136 79.4308 202.864 79.4308 198.196 87.4276C197.918 87.9045 197.305 88.0656 196.828 87.7874 196.351 87.5092 196.19 86.8972 196.468 86.4203Z" fill="#172C51"/><path d="M158 259.824 189.019 259.824 189.019 261.823 158 261.823ZM181.521 255.295 191.005 260.823 181.521 266.352C181.044 266.63 180.432 266.469 180.153 265.992 179.875 265.515 180.036 264.903 180.513 264.625L188.515 259.96 188.515 261.687 180.513 257.022C180.036 256.744 179.875 256.132 180.153 255.655 180.432 255.178 181.044 255.017 181.521 255.295Z"/><path d="M203 246.833 203 226.827 205 226.827 205 246.833ZM198.468 234.32 204 224.843 209.532 234.32C209.81 234.797 209.649 235.409 209.172 235.687 208.695 235.965 208.082 235.804 207.804 235.327L203.136 227.331 204.864 227.331 200.196 235.327C199.918 235.804 199.305 235.965 198.828 235.687 198.351 235.409 198.19 234.797 198.468 234.32Z"/><path d="M203 295.8 203 275.794 205 275.794 205 295.8ZM198.468 283.287 204 273.81 209.532 283.287C209.81 283.764 209.649 284.376 209.172 284.654 208.695 284.932 208.082 284.771 207.804 284.294L203.136 276.298 204.864 276.298 200.196 284.294C199.918 284.771 199.305 284.932 198.828 284.654 198.351 284.376 198.19 283.764 198.468 283.287Z"/><text font-family="Calibri,Calibri_MSFontService,sans-serif" font-weight="700" font-size="14.6609" transform="matrix(1 0 0 0.999324 14.0492 87)">skip</text><text font-family="Yu Gothic,Yu Gothic_MSFontService,sans-serif" font-weight="700" font-size="14.6609" transform="matrix(1 0 0 0.999324 14.0492 104)">接続</text><text font-family="Yu Gothic,Yu Gothic_MSFontService,sans-serif" font-weight="700" font-size="14.6609" transform="matrix(1 0 0 0.999324 5.3337 241)">常微分</text><text font-family="Yu Gothic,Yu Gothic_MSFontService,sans-serif" font-weight="700" font-size="14.6609" transform="matrix(1 0 0 0.999324 5.3337 258)">方程式</text><text font-family="Cambria Math,Cambria Math_MSFontService,sans-serif" font-weight="400" font-size="14.6609" transform="matrix(1 0 0 0.999324 211.723 245)">∆</text><text font-family="Cambria Math,Cambria Math_MSFontService,sans-serif" font-weight="400" font-size="14.6609" transform="matrix(1 0 0 0.999324 220.392 245)">𝒉</text><path d="M339.5 130.745 548.18 130.745 548.18 132.077 339.5 132.077ZM540.513 126.171 549.503 131.411 540.513 136.652C540.195 136.837 539.787 136.73 539.601 136.412 539.416 136.094 539.523 135.686 539.841 135.5L547.844 130.835 547.844 131.987 539.841 127.322C539.523 127.136 539.416 126.728 539.601 126.41 539.787 126.093 540.195 125.985 540.513 126.171Z" fill="#172C51"/><path d="M0 65.9553 0 0" stroke="#172C51" stroke-width="1.99922" stroke-miterlimit="8" fill="none" fill-rule="evenodd" transform="matrix(-1.00068 0 0 1 366 63.9568)"/><path d="M0 120.918 0 0" stroke="#172C51" stroke-width="1.99922" stroke-miterlimit="8" fill="none" fill-rule="evenodd" transform="matrix(-1.00068 0 0 1 511 10.9925)"/><text font-family="Cambria Math,Cambria Math_MSFontService,sans-serif" font-weight="400" font-size="14.6609" transform="matrix(1 0 0 0.999324 354.342 156)">𝒌</text><text font-family="Yu Gothic,Yu Gothic_MSFontService,sans-serif" font-weight="400" font-size="14.6609" transform="matrix(1 0 0 0.999324 363.344 156)">層</text><text font-family="Cambria Math,Cambria Math_MSFontService,sans-serif" font-weight="400" font-size="14.6609" transform="matrix(1 0 0 0.999324 485.206 155)">𝒌</text><text font-family="Cambria Math,Cambria Math_MSFontService,sans-serif" font-weight="400" font-size="14.6609" transform="matrix(1 0 0 0.999324 497.469 155)">+</text><text font-family="Cambria Math,Cambria Math_MSFontService,sans-serif" font-weight="400" font-size="14.6609" transform="matrix(1 0 0 0.999324 511.733 155)">𝟏</text><text font-family="Cambria Math,Cambria Math_MSFontService,sans-serif" font-weight="400" font-size="14.6609" transform="matrix(1 0 0 0.999324 520.569 155)"></text><text font-family="Yu Gothic,Yu Gothic_MSFontService,sans-serif" font-weight="400" font-size="14.6609" transform="matrix(1 0 0 0.999324 523.737 155)">層</text><path d="M366.5 65.4557 510.5 65.4557" stroke="#BFBFBF" stroke-width="1.33371" stroke-miterlimit="8" stroke-dasharray="5.33485 4.00114" fill="none" fill-rule="evenodd"/><path d="M518.5 10.4929C524.299 10.4929 529 12.1049 529 14.0934L529 33.8741C529 35.8626 533.701 37.4746 539.5 37.4746 533.701 37.4746 529 39.0867 529 41.0752L529 60.8559C529 62.8444 524.299 64.4564 518.5 64.4564" stroke="#000000" stroke-width="1.33371" stroke-miterlimit="8" fill="none" fill-rule="evenodd"/><path d="M519.5 66.455C525.299 66.455 530 68.067 530 70.0555L530 95.3325C530 97.321 534.701 98.933 540.5 98.933 534.701 98.933 530 100.545 530 102.534L530 127.811C530 129.799 525.299 131.411 519.5 131.411" stroke="#000000" stroke-width="1.33371" stroke-miterlimit="8" fill="none" fill-rule="evenodd"/><text font-family="Cambria Math,Cambria Math_MSFontService,sans-serif" font-weight="400" font-size="14.6609" transform="matrix(1 0 0 0.999324 544.244 40)">𝒇</text><text font-family="Cambria Math,Cambria Math_MSFontService,sans-serif" font-weight="400" font-size="14.6609" transform="matrix(1 0 0 0.999324 543.991 106)">𝒚</text><path d="M26.2882 3.01514C27.6808 3.38236 28.7503 4.17524 29.4967 5.39378 30.2431 6.61231 30.6163 8.08242 30.6163 9.8041 30.6163 11.5306 30.2443 13.0007 29.5003 14.2144 28.7563 15.4282 27.6856 16.2187 26.2882 16.5859L26.1165 16.0351C27.2182 15.6678 28.0373 14.9429 28.5738 13.8603 29.1104 12.7777 29.3787 11.4018 29.3787 9.73256 29.3787 8.12057 29.1116 6.78162 28.5774 5.7157 28.0433 4.64978 27.2158 3.93321 26.0951 3.56598ZM16.3582 3.01514 16.5513 3.56598C15.4354 3.93321 14.6091 4.64978 14.0726 5.7157 13.536 6.78162 13.2677 8.12057 13.2677 9.73256 13.2677 11.4018 13.536 12.7777 14.0726 13.8603 14.6091 14.9429 15.4282 15.6678 16.5299 16.0351L16.3582 16.5859C14.9608 16.2187 13.8901 15.4282 13.1461 14.2144 12.4021 13.0007 12.0301 11.5306 12.0301 9.8041 12.0301 8.08242 12.4033 6.61231 13.1497 5.39378 13.8961 4.17524 14.9656 3.38236 16.3582 3.01514Z" fill-rule="evenodd" transform="matrix(1.00068 0 0 1 542.077 91.7764)"/><text font-family="Cambria Math,Cambria Math_MSFontService,sans-serif" font-weight="400" font-size="14.6609" transform="matrix(1 0 0 0.999324 558.915 106)">𝒌</text><text font-family="Cambria Math,Cambria Math_MSFontService,sans-serif" font-weight="400" font-size="14.6609" transform="matrix(1 0 0 0.999324 370.754 104)">𝒚</text><path d="M26.2882 3.01514C27.6808 3.38236 28.7503 4.17524 29.4967 5.39378 30.2431 6.61231 30.6163 8.08242 30.6163 9.8041 30.6163 11.5306 30.2443 13.0007 29.5003 14.2144 28.7563 15.4282 27.6856 16.2187 26.2882 16.5859L26.1165 16.0351C27.2182 15.6678 28.0373 14.9429 28.5738 13.8603 29.1104 12.7777 29.3787 11.4018 29.3787 9.73256 29.3787 8.12057 29.1116 6.78162 28.5774 5.7157 28.0433 4.64978 27.2158 3.93321 26.0951 3.56598ZM16.3582 3.01514 16.5513 3.56598C15.4354 3.93321 14.6091 4.64978 14.0726 5.7157 13.536 6.78162 13.2677 8.12057 13.2677 9.73256 13.2677 11.4018 13.536 12.7777 14.0726 13.8603 14.6091 14.9429 15.4282 15.6678 16.5299 16.0351L16.3582 16.5859C14.9608 16.2187 13.8901 15.4282 13.1461 14.2144 12.4021 13.0007 12.0301 11.5306 12.0301 9.8041 12.0301 8.08242 12.4033 6.61231 13.1497 5.39378 13.8961 4.17524 14.9656 3.38236 16.3582 3.01514Z" fill-rule="evenodd" transform="matrix(1.00068 0 0 1 368.84 90.4445)"/><text font-family="Cambria Math,Cambria Math_MSFontService,sans-serif" font-weight="400" font-size="14.6609" transform="matrix(1 0 0 0.999324 385.678 104)">𝒌</text><path d="M339.5 322.615 548.18 322.615 548.18 323.948 339.5 323.948ZM540.513 318.041 549.503 323.281 540.513 328.522C540.195 328.707 539.787 328.6 539.601 328.282 539.416 327.964 539.523 327.556 539.841 327.37L547.844 322.706 547.844 323.857 539.841 319.192C539.523 319.007 539.416 318.598 539.601 318.281 539.787 317.963 540.195 317.855 540.513 318.041Z" fill="#172C51"/><path d="M0 65.9554 0 0" stroke="#172C51" stroke-width="1.99922" stroke-miterlimit="8" fill="none" fill-rule="evenodd" transform="matrix(-1.00068 0 0 1 366 255.827)"/><path d="M0 120.918 0 0" stroke="#172C51" stroke-width="1.99922" stroke-miterlimit="8" fill="none" fill-rule="evenodd" transform="matrix(-1.00068 0 0 1 511 202.863)"/><text font-family="Cambria Math,Cambria Math_MSFontService,sans-serif" font-weight="400" font-size="14.6609" transform="matrix(1 0 0 0.999324 361.597 342)">𝒕</text><text font-family="Cambria Math,Cambria Math_MSFontService,sans-serif" font-weight="400" font-size="14.6609" transform="matrix(1 0 0 0.999324 494.455 347)">𝒕</text><text font-family="Cambria Math,Cambria Math_MSFontService,sans-serif" font-weight="400" font-size="14.6609" transform="matrix(1 0 0 0.999324 503.884 347)">+</text><text font-family="Cambria Math,Cambria Math_MSFontService,sans-serif" font-weight="400" font-size="14.6609" transform="matrix(1 0 0 0.999324 518.148 347)">𝟏</text><path d="M366.5 257.326 510.5 257.326" stroke="#BFBFBF" stroke-width="1.33371" stroke-miterlimit="8" stroke-dasharray="5.33485 4.00114" fill="none" fill-rule="evenodd"/><path d="M518.5 202.363C524.299 202.363 529 203.975 529 205.964L529 225.744C529 227.733 533.701 229.345 539.5 229.345 533.701 229.345 529 230.957 529 232.945L529 252.726C529 254.715 524.299 256.327 518.5 256.327" stroke="#000000" stroke-width="1.33371" stroke-miterlimit="8" fill="none" fill-rule="evenodd"/><path d="M519.5 258.325C525.299 258.325 530 259.937 530 261.926L530 287.203C530 289.191 534.701 290.803 540.5 290.803 534.701 290.803 530 292.415 530 294.404L530 319.681C530 321.669 525.299 323.281 519.5 323.281" stroke="#000000" stroke-width="1.33371" stroke-miterlimit="8" fill="none" fill-rule="evenodd"/><text font-family="Cambria Math,Cambria Math_MSFontService,sans-serif" font-weight="400" font-size="14.6609" transform="matrix(1 0 0 0.999324 543.911 222)">𝒅</text><text font-family="Cambria Math,Cambria Math_MSFontService,sans-serif" font-weight="400" font-size="14.6609" transform="matrix(1 0 0 0.999324 553.414 222)">𝒚</text><text font-family="Cambria Math,Cambria Math_MSFontService,sans-serif" font-weight="400" font-size="14.6609" transform="matrix(1 0 0 0.999324 545.245 243)">𝒅𝒕</text><path d="M1.99865 18.9872 6.4956 18.9872 10.9926 18.9872 15.4895 18.9872 19.9865 18.9872 19.9865 19.9865 15.4895 19.9865 10.9926 19.9865 6.4956 19.9865 1.99865 19.9865Z" fill-rule="evenodd" transform="matrix(1.00068 0 0 1 542.077 208.984)"/><text font-family="Cambria Math,Cambria Math_MSFontService,sans-serif" font-weight="400" font-size="14.6609" transform="matrix(1 0 0 0.999324 543.904 298)">𝒚</text><path d="M23.3693 3.01514C24.762 3.38236 25.8315 4.17524 26.5778 5.39378 27.3242 6.61231 27.6974 8.08242 27.6974 9.8041 27.6974 11.5306 27.3254 13.0007 26.5814 14.2144 25.8374 15.4282 24.7667 16.2187 23.3693 16.5859L23.1977 16.0351C24.2993 15.6678 25.1185 14.9429 25.655 13.8603 26.1915 12.7777 26.4598 11.4018 26.4598 9.73256 26.4598 8.12057 26.1927 6.78162 25.6586 5.7157 25.1244 4.64978 24.297 3.93321 23.1762 3.56598ZM16.2716 3.01514 16.4647 3.56598C15.3487 3.93321 14.5225 4.64978 13.9859 5.7157 13.4494 6.78162 13.1811 8.12057 13.1811 9.73256 13.1811 11.4018 13.4494 12.7777 13.9859 13.8603 14.5225 14.9429 15.3416 15.6678 16.4433 16.0351L16.2716 16.5859C14.8742 16.2187 13.8035 15.4282 13.0595 14.2144 12.3155 13.0007 11.9435 11.5306 11.9435 9.8041 11.9435 8.08242 12.3167 6.61231 13.0631 5.39378 13.8095 4.17524 14.879 3.38236 16.2716 3.01514Z" fill-rule="evenodd" transform="matrix(1.00068 0 0 1 542.077 283.571)"/><text font-family="Cambria Math,Cambria Math_MSFontService,sans-serif" font-weight="400" font-size="14.6609" transform="matrix(1 0 0 0.999324 558.828 298)">𝒕</text><text font-family="Cambria Math,Cambria Math_MSFontService,sans-serif" font-weight="400" font-size="14.6609" transform="matrix(1 0 0 0.999324 370.667 296)">𝒚</text><path d="M23.3693 3.01514C24.762 3.38236 25.8315 4.17524 26.5778 5.39378 27.3242 6.61231 27.6974 8.08242 27.6974 9.8041 27.6974 11.5306 27.3254 13.0007 26.5814 14.2144 25.8374 15.4282 24.7667 16.2187 23.3693 16.5859L23.1977 16.0351C24.2993 15.6678 25.1185 14.9429 25.655 13.8603 26.1915 12.7777 26.4598 11.4018 26.4598 9.73256 26.4598 8.12057 26.1927 6.78162 25.6586 5.7157 25.1244 4.64978 24.297 3.93321 23.1762 3.56598ZM16.2716 3.01514 16.4647 3.56598C15.3487 3.93321 14.5225 4.64978 13.9859 5.7157 13.4494 6.78162 13.1811 8.12057 13.1811 9.73256 13.1811 11.4018 13.4494 12.7777 13.9859 13.8603 14.5225 14.9429 15.3416 15.6678 16.4433 16.0351L16.2716 16.5859C14.8742 16.2187 13.8035 15.4282 13.0595 14.2144 12.3155 13.0007 11.9435 11.5306 11.9435 9.8041 11.9435 8.08242 12.3167 6.61231 13.0631 5.39378 13.8095 4.17524 14.879 3.38236 16.2716 3.01514Z" fill-rule="evenodd" transform="matrix(1.00068 0 0 1 368.84 282.239)"/><text font-family="Cambria Math,Cambria Math_MSFontService,sans-serif" font-weight="400" font-size="14.6609" transform="matrix(1 0 0 0.999324 385.592 296)">𝒕</text><path d="M367.5 257.326 513.5 204.362" stroke="#BFBFBF" stroke-width="1.33371" stroke-miterlimit="8" stroke-dasharray="5.33485 4.00114" fill="none" fill-rule="evenodd"/><text font-family="Cambria Math,Cambria Math_MSFontService,sans-serif" font-weight="400" font-size="14.6609" transform="matrix(1 0 0 0.999324 409.518 343)">𝒕</text><text font-family="Cambria Math,Cambria Math_MSFontService,sans-serif" font-weight="400" font-size="14.6609" transform="matrix(1 0 0 0.999324 418.948 343)">+</text><text font-family="Cambria Math,Cambria Math_MSFontService,sans-serif" font-weight="400" font-size="14.6609" transform="matrix(1 0 0 0.999324 433.212 343)">∆</text><text font-family="Cambria Math,Cambria Math_MSFontService,sans-serif" font-weight="400" font-size="14.6609" transform="matrix(1 0 0 0.999324 441.881 343)">𝒕</text><path d="M0 85.9418 0 0" stroke="#172C51" stroke-width="1.99922" stroke-miterlimit="8" fill="none" fill-rule="evenodd" transform="matrix(-1.00068 0 0 1 426 235.84)"/><path d="M429.5 236.34C433.918 236.34 437.5 237.568 437.5 239.083L437.5 243.59C437.5 245.105 441.082 246.333 445.5 246.333 441.082 246.333 437.5 247.562 437.5 249.077L437.5 253.583C437.5 255.098 433.918 256.327 429.5 256.327" stroke="#000000" stroke-width="1.33371" stroke-miterlimit="8" fill="none" fill-rule="evenodd"/><path d="M366.5 350.263C382.559 365.264 414.5 364.163 429.5 351.502" stroke="#172C51" stroke-width="1.33371" stroke-miterlimit="8" stroke-dasharray="5.33485 4.00114" fill="none" fill-rule="evenodd"/><path d="M367.5 348.264C402.931 404.176 473.405 400.073 506.5 352.881" stroke="#172C51" stroke-width="1.33371" stroke-miterlimit="8" stroke-dasharray="5.33485 4.00114" fill="none" fill-rule="evenodd"/><text font-family="Cambria Math,Cambria Math_MSFontService,sans-serif" font-weight="400" font-size="14.6609" transform="matrix(1 0 0 0.999324 401.543 375)">∆</text><text font-family="Cambria Math,Cambria Math_MSFontService,sans-serif" font-weight="400" font-size="14.6609" transform="matrix(1 0 0 0.999324 410.212 375)">𝒕</text><text font-family="Cambria Math,Cambria Math_MSFontService,sans-serif" font-weight="400" font-size="14.6609" transform="matrix(1 0 0 0.999324 436.806 403)">𝟏</text><text font-family="Cambria Math,Cambria Math_MSFontService,sans-serif" font-weight="400" font-size="14.6609" transform="matrix(1 0 0 0.999324 92.617 398)">𝒚</text><path d="M56.3897 13.0045C57.7823 13.3717 58.8518 14.1646 59.5982 15.3831 60.3446 16.6016 60.7178 18.0717 60.7178 19.7934 60.7178 21.5199 60.3458 22.99 59.6018 24.2037 58.8578 25.4175 57.7871 26.208 56.3897 26.5752L56.218 26.0244C57.3197 25.6572 58.1388 24.9322 58.6754 23.8496 59.2119 22.767 59.4802 21.3911 59.4802 19.7219 59.4802 18.1099 59.2131 16.7709 58.679 15.705 58.1448 14.6391 57.3173 13.9225 56.1966 13.5553ZM16.9513 13.0045 17.1444 13.5553C16.0285 13.9225 15.2022 14.6391 14.6657 15.705 14.1291 16.7709 13.8609 18.1099 13.8609 19.7219 13.8609 21.3911 14.1291 22.767 14.6657 23.8496 15.2022 24.9322 16.0213 25.6572 17.123 26.0244L16.9513 26.5752C15.5539 26.208 14.4832 25.4175 13.7392 24.2037 12.9952 22.99 12.6232 21.5199 12.6232 19.7934 12.6232 18.0717 12.9964 16.6016 13.7428 15.3831 14.4892 14.1646 15.5587 13.3717 16.9513 13.0045Z" fill-rule="evenodd" transform="matrix(1.00068 0 0 1 90.1096 374.393)"/><text font-family="Cambria Math,Cambria Math_MSFontService,sans-serif" font-weight="400" font-size="14.6609" transform="matrix(1 0 0 0.999324 107.541 398)">𝒕</text><text font-family="Cambria Math,Cambria Math_MSFontService,sans-serif" font-weight="400" font-size="14.6609" transform="matrix(1 0 0 0.999324 116.971 398)">+</text><text font-family="Cambria Math,Cambria Math_MSFontService,sans-serif" font-weight="400" font-size="14.6609" transform="matrix(1 0 0 0.999324 131.235 398)">∆</text><text font-family="Cambria Math,Cambria Math_MSFontService,sans-serif" font-weight="400" font-size="14.6609" transform="matrix(1 0 0 0.999324 139.904 398)">𝒕</text><text font-family="Cambria Math,Cambria Math_MSFontService,sans-serif" font-weight="400" font-size="14.6609" transform="matrix(1 0 0 0.999324 156.235 398)">=</text><text font-family="Cambria Math,Cambria Math_MSFontService,sans-serif" font-weight="400" font-size="14.6609" transform="matrix(1 0 0 0.999324 171.313 398)">𝒚</text><path d="M102.692 13.0045C104.084 13.3717 105.154 14.1646 105.9 15.3831 106.646 16.6016 107.02 18.0717 107.02 19.7934 107.02 21.5199 106.648 22.99 105.904 24.2037 105.16 25.4175 104.089 26.208 102.692 26.5752L102.52 26.0244C103.622 25.6572 104.441 24.9322 104.977 23.8496 105.514 22.767 105.782 21.3911 105.782 19.7219 105.782 18.1099 105.515 16.7709 104.981 15.705 104.447 14.6391 103.619 13.9225 102.498 13.5553ZM95.5938 13.0045 95.7869 13.5553C94.671 13.9225 93.8447 14.6391 93.3082 15.705 92.7716 16.7709 92.5033 18.1099 92.5033 19.7219 92.5033 21.3911 92.7716 22.767 93.3082 23.8496 93.8447 24.9322 94.6638 25.6572 95.7655 26.0244L95.5938 26.5752C94.1964 26.208 93.1257 25.4175 92.3817 24.2037 91.6377 22.99 91.2657 21.5199 91.2657 19.7934 91.2657 18.0717 91.6389 16.6016 92.3853 15.3831 93.1317 14.1646 94.2012 13.3717 95.5938 13.0045Z" fill-rule="evenodd" transform="matrix(1.00068 0 0 1 90.1096 374.393)"/><text font-family="Cambria Math,Cambria Math_MSFontService,sans-serif" font-weight="400" font-size="14.6609" transform="matrix(1 0 0 0.999324 186.237 398)">𝒕</text><text font-family="Cambria Math,Cambria Math_MSFontService,sans-serif" font-weight="400" font-size="14.6609" transform="matrix(1 0 0 0.999324 201.755 398)">+</text><text font-family="Cambria Math,Cambria Math_MSFontService,sans-serif" font-weight="400" font-size="14.6609" transform="matrix(1 0 0 0.999324 216.019 387)">𝒅</text><text font-family="Cambria Math,Cambria Math_MSFontService,sans-serif" font-weight="400" font-size="14.6609" transform="matrix(1 0 0 0.999324 225.521 387)">𝒚</text><text font-family="Cambria Math,Cambria Math_MSFontService,sans-serif" font-weight="400" font-size="14.6609" transform="matrix(1 0 0 0.999324 217.352 408)">𝒅𝒕</text><path d="M125.915 18.9872 143.903 18.9872 143.903 19.9865 125.915 19.9865Z" fill-rule="evenodd" transform="matrix(1.00068 0 0 1 90.1096 374.393)"/><text font-family="Cambria Math,Cambria Math_MSFontService,sans-serif" font-weight="400" font-size="14.6609" transform="matrix(1 0 0 0.999324 236.805 398)">∆</text><text font-family="Cambria Math,Cambria Math_MSFontService,sans-serif" font-weight="400" font-size="14.6609" transform="matrix(1 0 0 0.999324 245.474 398)">𝒕</text><text font-family="Cambria Math,Cambria Math_MSFontService,sans-serif" font-weight="400" font-size="14.6609" transform="matrix(1 0 0 0.999324 93.7558 339)">𝒚</text><path d="M56.2831 1.91631C57.6757 2.28354 58.7452 3.07642 59.4916 4.29495 60.238 5.51348 60.6112 6.98359 60.6112 8.70528 60.6112 10.4317 60.2392 11.9018 59.4952 13.1156 58.7512 14.3294 57.6805 15.1199 56.2831 15.4871L56.1114 14.9362C57.2131 14.569 58.0322 13.8441 58.5688 12.7615 59.1053 11.6789 59.3736 10.303 59.3736 8.63374 59.3736 7.02175 59.1065 5.68279 58.5723 4.61687 58.0382 3.55096 57.2107 2.83438 56.09 2.46715ZM16.8447 1.91631 17.0378 2.46715C15.9218 2.83438 15.0956 3.55096 14.559 4.61687 14.0225 5.68279 13.7542 7.02175 13.7542 8.63374 13.7542 10.303 14.0225 11.6789 14.559 12.7615 15.0956 13.8441 15.9147 14.569 17.0164 14.9362L16.8447 15.4871C15.4473 15.1199 14.3766 14.3294 13.6326 13.1156 12.8886 11.9018 12.5166 10.4317 12.5166 8.70528 12.5166 6.98359 12.8898 5.51348 13.6362 4.29495 14.3826 3.07642 15.4521 2.28354 16.8447 1.91631Z" fill-rule="evenodd" transform="matrix(1.00068 0 0 1 91.3551 325.735)"/><text font-family="Cambria Math,Cambria Math_MSFontService,sans-serif" font-weight="400" font-size="14.6609" transform="matrix(1 0 0 0.999324 108.68 339)">𝒕</text><text font-family="Cambria Math,Cambria Math_MSFontService,sans-serif" font-weight="400" font-size="14.6609" transform="matrix(1 0 0 0.999324 118.109 339)">+</text><text font-family="Cambria Math,Cambria Math_MSFontService,sans-serif" font-weight="400" font-size="14.6609" transform="matrix(1 0 0 0.999324 132.373 339)">∆</text><text font-family="Cambria Math,Cambria Math_MSFontService,sans-serif" font-weight="400" font-size="14.6609" transform="matrix(1 0 0 0.999324 141.043 339)">𝒕</text><text font-family="Cambria Math,Cambria Math_MSFontService,sans-serif" font-weight="400" font-size="14.6609" transform="matrix(1 0 0 0.999324 156.56 339)">−</text><text font-family="Cambria Math,Cambria Math_MSFontService,sans-serif" font-weight="400" font-size="14.6609" transform="matrix(1 0 0 0.999324 170.824 339)">𝒚</text><path d="M100.959 1.91631C102.352 2.28354 103.421 3.07642 104.167 4.29495 104.914 5.51348 105.287 6.98359 105.287 8.70528 105.287 10.4317 104.915 11.9018 104.171 13.1156 103.427 14.3294 102.356 15.1199 100.959 15.4871L100.787 14.9362C101.889 14.569 102.708 13.8441 103.245 12.7615 103.781 11.6789 104.049 10.303 104.049 8.63374 104.049 7.02175 103.782 5.68279 103.248 4.61687 102.714 3.55096 101.887 2.83438 100.766 2.46715ZM93.8611 1.91631 94.0543 2.46715C92.9383 2.83438 92.112 3.55096 91.5755 4.61687 91.039 5.68279 90.7707 7.02175 90.7707 8.63374 90.7707 10.303 91.039 11.6789 91.5755 12.7615 92.112 13.8441 92.9311 14.569 94.0328 14.9362L93.8611 15.4871C92.4638 15.1199 91.3931 14.3294 90.6491 13.1156 89.9051 11.9018 89.5331 10.4317 89.5331 8.70528 89.5331 6.98359 89.9063 5.51348 90.6527 4.29495 91.399 3.07642 92.4685 2.28354 93.8611 1.91631Z" fill-rule="evenodd" transform="matrix(1.00068 0 0 1 91.3551 325.735)"/><text font-family="Cambria Math,Cambria Math_MSFontService,sans-serif" font-weight="400" font-size="14.6609" transform="matrix(1 0 0 0.999324 185.749 339)">𝒕</text><text font-family="Cambria Math,Cambria Math_MSFontService,sans-serif" font-weight="400" font-size="14.6609" transform="matrix(1 0 0 0.999324 138.462 360)">∆</text><text font-family="Cambria Math,Cambria Math_MSFontService,sans-serif" font-weight="400" font-size="14.6609" transform="matrix(1 0 0 0.999324 147.131 360)">𝒕</text><path d="M1.99865 18.9872 36.6419 18.9872 71.2851 18.9872 105.928 18.9872 105.928 19.9865 71.2851 19.9865 36.6419 19.9865 1.99865 19.9865Z" fill-rule="evenodd" transform="matrix(1.00068 0 0 1 91.3551 325.735)"/><text font-family="Cambria Math,Cambria Math_MSFontService,sans-serif" font-weight="400" font-size="14.6609" transform="matrix(1 0 0 0.999324 202.08 350)">=</text><text font-family="Cambria Math,Cambria Math_MSFontService,sans-serif" font-weight="400" font-size="14.6609" transform="matrix(1 0 0 0.999324 217.158 339)">𝒅</text><text font-family="Cambria Math,Cambria Math_MSFontService,sans-serif" font-weight="400" font-size="14.6609" transform="matrix(1 0 0 0.999324 226.66 339)">𝒚</text><text font-family="Cambria Math,Cambria Math_MSFontService,sans-serif" font-weight="400" font-size="14.6609" transform="matrix(1 0 0 0.999324 218.491 360)">𝒅𝒕</text><path d="M125.915 18.9872 143.903 18.9872 143.903 19.9865 125.915 19.9865Z" fill-rule="evenodd" transform="matrix(1.00068 0 0 1 91.3551 325.735)"/><path d="M195.322 107.694 211.747 124.109" stroke="#BFBFBF" stroke-width="1.99989" stroke-miterlimit="8" fill="none" fill-rule="evenodd"/><path d="M195.322 124.109 211.747 107.694" stroke="#BFBFBF" stroke-width="1.99989" stroke-miterlimit="8" fill="none" fill-rule="evenodd"/><path d="M195.04 107.6C199.627 103.016 207.065 103.016 211.653 107.6 216.241 112.185 216.241 119.618 211.653 124.203 207.065 128.787 199.627 128.787 195.04 124.203 190.452 119.618 190.452 112.185 195.04 107.6Z" stroke="#BFBFBF" stroke-width="1.99989" stroke-miterlimit="8" fill="none" fill-rule="evenodd"/><path d="M202 149.899 202 129.893 204 129.893 204 149.899ZM197.468 137.386 203 127.909 208.532 137.386C208.81 137.863 208.649 138.475 208.172 138.753 207.695 139.031 207.082 138.87 206.804 138.393L202.136 130.396 203.864 130.396 199.196 138.393C198.918 138.87 198.305 139.031 197.828 138.753 197.351 138.475 197.19 137.863 197.468 137.386Z" fill="#BFBFBF"/><text fill="#BFBFBF" font-family="Cambria Math,Cambria Math_MSFontService,sans-serif" font-weight="400" font-size="14.6609" transform="matrix(1 0 0 0.999324 197.96 167)">𝟏</text><path d="M428.5 257.326C434.299 257.326 439 258.938 439 260.926L439 286.203C439 288.192 443.701 289.804 449.5 289.804 443.701 289.804 439 291.416 439 293.404L439 318.681C439 320.67 434.299 322.282 428.5 322.282" stroke="#000000" stroke-width="1.33371" stroke-miterlimit="8" fill="none" fill-rule="evenodd"/><text font-family="Cambria Math,Cambria Math_MSFontService,sans-serif" font-weight="400" font-size="14.6609" transform="matrix(1 0 0 0.999324 452.761 296)">𝒚</text><path d="M23.3693 3.01514C24.762 3.38236 25.8315 4.17524 26.5778 5.39378 27.3242 6.61231 27.6974 8.08242 27.6974 9.8041 27.6974 11.5306 27.3254 13.0007 26.5814 14.2144 25.8374 15.4282 24.7667 16.2187 23.3693 16.5859L23.1977 16.0351C24.2993 15.6678 25.1185 14.9429 25.655 13.8603 26.1915 12.7777 26.4598 11.4018 26.4598 9.73256 26.4598 8.12057 26.1927 6.78162 25.6586 5.7157 25.1244 4.64978 24.297 3.93321 23.1762 3.56598ZM16.2716 3.01514 16.4647 3.56598C15.3487 3.93321 14.5225 4.64978 13.9859 5.7157 13.4494 6.78162 13.1811 8.12057 13.1811 9.73256 13.1811 11.4018 13.4494 12.7777 13.9859 13.8603 14.5225 14.9429 15.3416 15.6678 16.4433 16.0351L16.2716 16.5859C14.8742 16.2187 13.8035 15.4282 13.0595 14.2144 12.3155 13.0007 11.9435 11.5306 11.9435 9.8041 11.9435 8.08242 12.3167 6.61231 13.0631 5.39378 13.8095 4.17524 14.879 3.38236 16.2716 3.01514Z" fill-rule="evenodd" transform="matrix(1.00068 0 0 1 450.933 281.574)"/><text font-family="Cambria Math,Cambria Math_MSFontService,sans-serif" font-weight="400" font-size="14.6609" transform="matrix(1 0 0 0.999324 467.685 296)">𝒕</text><text font-family="Cambria Math,Cambria Math_MSFontService,sans-serif" font-weight="400" font-size="14.6609" transform="matrix(1 0 0 0.999324 446.657 230)">𝒅</text><text font-family="Cambria Math,Cambria Math_MSFontService,sans-serif" font-weight="400" font-size="14.6609" transform="matrix(1 0 0 0.999324 456.16 230)">𝒚</text><text font-family="Cambria Math,Cambria Math_MSFontService,sans-serif" font-weight="400" font-size="14.6609" transform="matrix(1 0 0 0.999324 447.991 251)">𝒅𝒕</text><path d="M1.99865 18.9872 10.9926 18.9872 19.9865 18.9872 19.9865 19.9865 10.9926 19.9865 1.99865 19.9865Z" fill-rule="evenodd" transform="matrix(1.00068 0 0 1 444.716 216.754)"/><text font-family="Cambria Math,Cambria Math_MSFontService,sans-serif" font-weight="400" font-size="14.6609" transform="matrix(1 0 0 0.999324 467.443 241)">∆</text><text font-family="Cambria Math,Cambria Math_MSFontService,sans-serif" font-weight="400" font-size="14.6609" transform="matrix(1 0 0 0.999324 476.112 241)">𝒕</text><path d="M367.5 64.4564 512.5 11.4922" stroke="#BFBFBF" stroke-width="1.33371" stroke-miterlimit="8" stroke-dasharray="5.33485 4.00114" fill="none" fill-rule="evenodd"/></g></svg>